PathFileType	4	(X/Y/Z)	Patient4_TMGait_0pt6_01_left_29.trc.trc
DataRate	CameraRate	NumFrames	NumMarkers	Units	OrigDataRate	OrigDataStartFrame	OrigNumFrames
82.840236686391	82.840236686391	4	33	mm	82.840236686391	36	       141
Frame#	Time	Sacral			L.Shoulder			Chest			R.Shoulder			Neck			R.ASIS			L.ASIS			R.Thigh.Superior			R.Thigh.Lateral			R.Thigh.Inferior			R.Patella			L.Thigh.Superior			L.Thigh.Lateral			L.Thigh.Inferior			L.Patella			L.Shank.Superior			L.Shank.Lateral			L.Shank.Inferior			R.Shank.Superior			R.Shank.Lateral			R.Shank.Inferior			R.Heel			R.Midfoot.Superior			R.Midfoot.Lateral			R.Toe			L.Heel			L.Midfoot.Lateral			L.Midfoot.Superior			L.Toe			L.Elbow			L.Wrist			R.Elbow			R.Wrist			
		X1	Y1	Z1	X2	Y2	Z2	X3	Y3	Z3	X4	Y4	Z4	X5	Y5	Z5	X6	Y6	Z6	X7	Y7	Z7	X8	Y8	Z8	X9	Y9	Z9	X10	Y10	Z10	X11	Y11	Z11	X12	Y12	Z12	X13	Y13	Z13	X14	Y14	Z14	X15	Y15	Z15	X16	Y16	Z16	X17	Y17	Z17	X18	Y18	Z18	X19	Y19	Z19	X20	Y20	Z20	X21	Y21	Z21	X22	Y22	Z22	X23	Y23	Z23	X24	Y24	Z24	X25	Y25	Z25	X26	Y26	Z26	X27	Y27	Z27	X28	Y28	Z28	X29	Y29	Z29	X30	Y30	Z30	X31	Y31	Z31	X32	Y32	Z32	X33	Y33	Z33	

36	35.712500000000	734.897104830348	998.768859934531	488.958500656329	854.268695105305	1429.807834793521	298.804589191817	986.871712359258	1367.679912186880	439.368063778296	928.498520506281	1434.687232382619	625.050231858355	857.661363065191	1487.982926755711	454.121668286930	969.254749238136	932.153177523988	582.076257914978	933.576200545295	959.206275367659	310.793248679128	980.604402565663	719.108110177041	556.477217344510	887.831710301758	617.881827192116	620.265190186233	956.317048244680	553.211770691601	541.845208606524	938.075121988754	448.315503686605	556.719762987722	1011.623684171755	764.485392706866	346.213001994999	943.787250800756	636.527062864853	285.245285023299	1040.873212042929	572.480288062328	347.872184566674	1052.353232423034	501.760301982502	355.380071531742	1032.035027395303	426.701244153778	347.958655071696	952.943254886761	303.444823727366	300.591224266199	1019.275360550996	198.791322493357	369.304364705835	865.076224466550	380.592041917580	561.675493993290	751.359045251710	326.735607490406	623.806033819418	742.747162224788	220.915936686240	566.283817257452	546.291490731826	123.720300737414	539.006086099288	723.668839094072	109.311737320764	576.388682713814	619.119296260459	81.232545969766	610.609816198049	813.411841940713	34.274534048116	599.328070648032	907.109419941649	37.973580292870	418.435368149414	976.062407234890	36.107252497098	333.054128771646	1059.044073455831	98.576751896784	354.763086400446	1186.279611189567	49.492967909292	318.956539482915	768.677395522494	1079.770621320515	206.771814888027	780.000515144289	820.080929315067	209.277713004521	1056.256884603048	1109.125242821988	730.071283134493	1304.803980962118	1125.101277997138	679.619036583175	
37	35.724571428571	734.502611411674	999.409452481914	486.000742687566	855.695805216926	1430.712561657499	296.242836530789	986.964964420761	1368.647644409753	438.030814445694	926.901378157832	1435.758358936276	623.108490338620	857.481339483919	1488.886808917788	451.617615132221	968.513482828169	933.097085200666	580.479486322379	934.201876781618	960.299108041984	309.116336119372	985.105639054103	721.166303773239	555.202543106584	895.177673863489	617.963062155002	619.104545411786	966.284257355539	554.381163514614	541.381593690862	949.290955248120	447.879884294701	557.427226750563	1010.881840250738	763.961880834059	342.836930608414	940.720411783912	636.479915083791	283.662788098773	1037.493473764241	571.614909128979	345.704067487053	1048.317147838869	501.139550948075	353.980337307234	1027.603429328140	426.144322583170	346.815593145768	947.712068685227	303.333595957584	299.875008236511	1013.048992754527	198.416852514794	368.924283077855	874.027243078344	381.189529409117	561.758194218482	757.777935412090	331.727311154999	622.971861246511	746.359495150581	225.778746002357	566.396310427375	546.836315925441	137.870705730151	538.307125333047	722.744734737609	112.853690962642	576.460438244742	616.636454447674	91.002824024820	610.087801661817	806.749624131952	33.206079897296	599.448921938264	899.916361004977	37.938463057646	418.364971598145	968.838938650951	36.034839962309	332.939498164530	1051.887203760070	98.446019040257	354.666324042618	1179.128943071115	49.277585742404	318.812366647705	777.143037689603	1079.123010344207	201.410266337489	796.415358342912	819.825800565985	203.120373233506	1047.292337024562	1107.023399669615	729.001003587118	1296.974376980847	1110.470369986520	680.195261725885	
38	35.736642857143	733.931641456855	999.866572104466	483.115164930267	857.174002165720	1431.464594142141	293.757006308534	987.009435068994	1369.437684166509	436.828327868759	925.174262433117	1436.595387550492	621.291210749495	857.289929145381	1489.647441595893	449.202444325916	967.610408825768	933.855613263313	579.009989734637	934.647716189717	961.213084134608	307.578452460685	989.859482291793	723.397631562408	554.042657374514	902.916248422978	618.173276269579	618.034699000724	976.627151475668	555.861708310571	540.952982414496	960.951013524310	447.868127888029	557.907679331725	1009.796652519876	763.232513247379	339.514869927319	937.429372803517	636.350251719701	282.063534541433	1033.850120968650	570.688395415215	343.579011083016	1044.010002120871	500.444524498812	352.513620813439	1022.925729562603	425.523321249107	345.612595391307	942.259334974683	303.123929776958	299.171058834146	1006.691670408351	197.983168293410	368.527173680436	883.617181335123	382.083370540986	561.655764799593	765.080350554890	336.986030882724	622.045981710588	750.778724041834	231.084985579220	566.308007586622	548.672001031811	152.835509534917	537.368355722168	722.497257804679	117.051200119051	576.297596798655	615.116963939403	101.715118100241	609.390799038963	800.509221701019	32.109320898918	599.597368536097	892.629340554288	37.880095383309	418.312082676437	961.525348158544	35.928033377980	332.847377273582	1044.685557228923	98.230629054793	354.607925734980	1171.926992372571	48.874992278760	318.714698349456	785.726584043566	1078.553656613214	195.983836889055	813.456635532091	819.925352907065	196.887246830448	1037.973064488618	1104.786879795987	727.968289502402	1288.196130415997	1095.042705615661	680.865483867709	
39	35.748714285714	733.183015259949	1000.143004786983	480.330712000480	858.671132484634	1432.057130959242	291.383841074490	987.000431949187	1370.040961538574	435.773322413524	923.344987479027	1437.186223249596	619.624160271937	857.097444893730	1490.267325265494	446.912266366040	966.550148067005	934.435222644003	577.656504913696	934.894793096886	961.946842682460	306.157227774282	994.741135996868	725.825892818590	552.932791622749	910.912916818955	618.586105596675	617.008947950749	987.133368103193	557.720208165911	540.471478787692	972.886035522992	448.350593162523	558.076841791077	1008.398466505431	762.374198405229	336.399789565441	934.068169507725	636.192561783798	280.457915347557	1030.046851702359	569.755042543110	341.576574437916	1039.529744816477	499.703979454910	351.028486763624	1018.092287521226	424.861393322352	344.389291069210	936.683768722564	302.850980720028	298.462726341144	1000.261284049970	197.512118975961	368.122118414456	893.684855577264	383.326625107385	561.313547471654	773.146514867748	342.463275393761	621.013381470995	755.949036665918	236.775840959463	565.991943367079	551.803991299717	168.247065313800	536.210937373999	723.008086971372	121.875713819893	575.886989736554	614.678793801458	113.111788448704	608.517513413320	794.938621151748	31.127093409330	599.728041914874	885.288172121087	37.810308739464	418.264453094445	954.162414676257	35.806760474484	332.767826023927	1037.464113163511	97.966521861823	354.576417721766	1164.700142368095	48.348647052224	318.651448076214	794.421691697363	1078.062723603398	190.544475073315	831.042534906585	820.418718546066	190.623649947571	1028.346853072622	1102.406185738698	726.971479529158	1278.396974086610	1078.889982461335	681.627645007413	
